<svg width="901" height="316" viewBox="0 0 901 316" fill="none" xmlns="http://www.w3.org/2000/svg">
<path d="M109.775 143.68C108.818 138.738 104.551 135.028 99.4253 135.028C95.3557 135.028 91.8212 137.377 90.061 140.815C85.8225 141.273 82.5274 144.926 82.5274 149.352C82.5274 154.094 86.3153 157.947 90.9763 157.947H109.282C113.169 157.947 116.323 154.738 116.323 150.785C116.323 147.003 113.437 143.938 109.775 143.68Z" fill="white"/>
<rect x="35" y="122" width="94.8837" height="73.5185" rx="20" stroke="white" stroke-width="10"/>
<path d="M160.055 199V121.867H169.898L171.375 132.906C174.422 129.109 178.219 126.062 182.766 123.766C187.359 121.422 192.305 120.25 197.602 120.25C206.508 120.25 213.094 122.758 217.359 127.773C221.625 132.742 223.758 140.406 223.758 150.766V199H212.016C212.016 168.062 211.992 151.492 211.945 149.289C211.758 142.727 210.422 137.922 207.938 134.875C205.5 131.828 201.398 130.305 195.633 130.305C189.586 130.305 184.547 131.758 180.516 134.664C176.484 137.57 173.859 141.344 172.641 145.984C172.172 149.125 171.938 152.734 171.938 156.812V199H160.055ZM257.156 121.867V199H245.344V121.867H257.156ZM257.156 93.8125V107.734H245.344V93.8125H257.156ZM377.25 199V158.852C377.25 155.102 377.156 151.961 376.969 149.43C376.828 146.898 376.453 144.32 375.844 141.695C375.281 139.07 374.461 137.008 373.383 135.508C372.352 133.961 370.898 132.719 369.023 131.781C367.148 130.797 364.898 130.305 362.273 130.305C357.117 130.305 352.711 131.688 349.055 134.453C345.445 137.219 342.867 141.109 341.32 146.125C340.898 149.5 340.688 153.109 340.688 156.953V199H328.945V157.586C328.945 154.117 328.828 151.117 328.594 148.586C328.359 146.008 327.914 143.523 327.258 141.133C326.602 138.695 325.711 136.727 324.586 135.227C323.508 133.727 322.055 132.531 320.227 131.641C318.398 130.75 316.219 130.305 313.688 130.305C308.062 130.305 303.328 131.734 299.484 134.594C295.688 137.453 293.133 141.25 291.82 145.984C291.398 149.594 291.188 153.508 291.188 157.727V199H279.445C279.352 150.766 279.305 125.055 279.305 121.867H289.148L290.625 132.906C292.969 129.344 296.297 126.344 300.609 123.906C304.922 121.469 309.82 120.25 315.305 120.25C318.164 120.25 320.789 120.555 323.18 121.164C325.617 121.727 327.633 122.453 329.227 123.344C330.867 124.234 332.32 125.312 333.586 126.578C334.852 127.797 335.836 129.016 336.539 130.234C337.242 131.406 337.828 132.648 338.297 133.961C343.922 124.82 352.523 120.25 364.102 120.25C372.68 120.25 378.961 122.711 382.945 127.633C386.977 132.508 388.992 139.75 388.992 149.359V199H377.25ZM439.125 130.023C431.672 130.023 425.953 132.602 421.969 137.758C418.031 142.867 416.062 150.391 416.062 160.328C416.062 180.672 423.727 190.844 439.055 190.844C442.852 190.844 446.18 190.07 449.039 188.523C451.945 186.93 454.219 184.727 455.859 181.914C457.547 179.055 458.789 175.844 459.586 172.281C460.43 168.719 460.852 164.758 460.852 160.398C460.852 154.492 460.148 149.336 458.742 144.93C457.383 140.523 455.039 136.938 451.711 134.172C448.383 131.406 444.188 130.023 439.125 130.023ZM440.32 120.25C447.164 120.25 453.07 121.984 458.039 125.453C463.008 128.922 466.734 133.633 469.219 139.586C471.703 145.539 472.945 152.359 472.945 160.047C472.945 168.016 471.703 175.023 469.219 181.07C466.781 187.117 463.055 191.898 458.039 195.414C453.07 198.883 447.117 200.617 440.18 200.617C435.07 200.617 430.406 199.516 426.188 197.312C421.969 195.109 418.453 192.109 415.641 188.312L414.445 199H404.391V91.9141L416.133 91.2109V116.734C416.133 123.016 416.039 128.406 415.852 132.906C418.57 129.016 422.086 125.945 426.398 123.695C430.758 121.398 435.398 120.25 440.32 120.25ZM486.867 173.266V121.867H498.68V173.406C498.68 176.781 499.148 179.641 500.086 181.984C501.07 184.328 502.453 186.156 504.234 187.469C506.062 188.734 508.102 189.648 510.352 190.211C512.648 190.773 515.273 191.055 518.227 191.055C524.32 191.055 529.055 189.719 532.43 187.047C535.852 184.375 537.562 179.828 537.562 173.406V121.867H549.375V173.266C549.375 177.203 548.812 180.742 547.688 183.883C546.562 187.023 545.039 189.648 543.117 191.758C541.242 193.82 538.969 195.531 536.297 196.891C533.625 198.25 530.789 199.234 527.789 199.844C524.836 200.453 521.648 200.758 518.227 200.758C514.852 200.758 511.664 200.453 508.664 199.844C505.664 199.234 502.805 198.25 500.086 196.891C497.414 195.484 495.094 193.75 493.125 191.688C491.203 189.578 489.68 186.953 488.555 183.812C487.43 180.672 486.867 177.156 486.867 173.266ZM589.875 200.617C584.625 200.617 579.773 200.055 575.32 198.93C570.914 197.805 567.328 196.352 564.562 194.57L566.039 184.656C573.867 188.828 581.555 190.914 589.102 190.914C600.539 190.914 606.422 186.883 606.75 178.82C606.75 175.398 605.531 172.703 603.094 170.734C600.656 168.766 595.875 166.562 588.75 164.125L582.914 162.086C576.164 159.836 571.336 157.047 568.43 153.719C565.57 150.391 564.117 146.242 564.07 141.273C564.07 135.227 566.484 130.211 571.312 126.227C576.188 122.242 582.844 120.25 591.281 120.25C600 120.25 607.945 121.938 615.117 125.312L611.672 134.312C604.406 131.312 597.609 129.812 591.281 129.812C586.359 129.812 582.492 130.797 579.68 132.766C576.914 134.688 575.531 137.406 575.531 140.922C575.531 143.922 576.539 146.219 578.555 147.812C580.57 149.406 584.602 151.234 590.648 153.297C592.195 153.859 594.141 154.516 596.484 155.266C604.266 157.797 609.773 160.797 613.008 164.266C616.242 167.688 617.859 172.328 617.859 178.188C617.766 185.312 615.211 190.844 610.195 194.781C605.18 198.672 598.406 200.617 589.875 200.617Z" fill="white"/>
<path d="M683.447 160.924C688.369 160.924 692.186 162.61 694.897 165.982C697.632 169.332 698.999 174.083 698.999 180.235C698.999 186.388 697.62 191.173 694.863 194.591C692.129 197.986 688.324 199.684 683.447 199.684C681.009 199.684 678.776 199.239 676.748 198.351C674.743 197.439 673.057 196.049 671.689 194.181H671.279L670.083 199H666.016V145.816H671.689V158.736C671.689 161.63 671.598 164.228 671.416 166.529H671.689C674.333 162.792 678.252 160.924 683.447 160.924ZM682.627 165.675C678.753 165.675 675.962 166.791 674.253 169.024C672.544 171.235 671.689 174.972 671.689 180.235C671.689 185.499 672.567 189.27 674.321 191.549C676.076 193.805 678.89 194.933 682.764 194.933C686.25 194.933 688.848 193.668 690.557 191.139C692.266 188.587 693.12 184.929 693.12 180.167C693.12 175.291 692.266 171.656 690.557 169.264C688.848 166.871 686.204 165.675 682.627 165.675ZM724.771 199.684C719.233 199.684 714.858 197.997 711.646 194.625C708.455 191.253 706.86 186.57 706.86 180.577C706.86 174.539 708.341 169.742 711.304 166.188C714.289 162.633 718.288 160.855 723.301 160.855C727.995 160.855 731.709 162.405 734.443 165.504C737.178 168.58 738.545 172.647 738.545 177.706V181.295H712.739C712.853 185.693 713.958 189.031 716.055 191.31C718.174 193.588 721.147 194.728 724.976 194.728C729.009 194.728 732.996 193.884 736.938 192.198V197.257C734.933 198.123 733.031 198.738 731.23 199.103C729.453 199.49 727.3 199.684 724.771 199.684ZM723.232 165.606C720.225 165.606 717.821 166.586 716.021 168.546C714.243 170.506 713.195 173.217 712.876 176.681H732.461C732.461 173.103 731.663 170.369 730.068 168.478C728.473 166.563 726.195 165.606 723.232 165.606ZM760.352 195.001C761.354 195.001 762.323 194.933 763.257 194.796C764.191 194.636 764.932 194.477 765.479 194.317V198.658C764.863 198.954 763.952 199.194 762.744 199.376C761.559 199.581 760.488 199.684 759.531 199.684C752.285 199.684 748.662 195.867 748.662 188.233V165.948H743.296V163.214L748.662 160.855L751.055 152.857H754.336V161.539H765.205V165.948H754.336V187.994C754.336 190.25 754.871 191.982 755.942 193.189C757.013 194.397 758.483 195.001 760.352 195.001ZM796.035 199L794.907 193.668H794.634C792.765 196.015 790.897 197.61 789.028 198.453C787.183 199.273 784.87 199.684 782.09 199.684C778.376 199.684 775.459 198.727 773.34 196.812C771.243 194.898 770.195 192.175 770.195 188.644C770.195 181.078 776.245 177.114 788.345 176.749L794.702 176.544V174.22C794.702 171.28 794.064 169.116 792.788 167.726C791.535 166.313 789.518 165.606 786.738 165.606C783.617 165.606 780.085 166.563 776.143 168.478L774.399 164.137C776.245 163.134 778.262 162.348 780.449 161.778C782.66 161.209 784.87 160.924 787.08 160.924C791.546 160.924 794.85 161.915 796.992 163.897C799.157 165.88 800.239 169.059 800.239 173.434V199H796.035ZM783.218 195.001C786.75 195.001 789.518 194.033 791.523 192.096C793.551 190.159 794.565 187.447 794.565 183.961V180.577L788.892 180.816C784.38 180.976 781.121 181.682 779.116 182.936C777.134 184.166 776.143 186.091 776.143 188.712C776.143 190.763 776.758 192.324 777.988 193.395C779.242 194.465 780.985 195.001 783.218 195.001Z" fill="white"/>
</svg>
